<mxfile host="app.diagrams.net" modified="2023-05-24T06:48:10.829Z" agent="Mozilla/5.0 (Windows NT 10.0; Win64; x64; rv:109.0) Gecko/20100101 Firefox/113.0" version="21.3.2" etag="kFbkYtO8QOkD1Nl2Ylu6" type="github">
  <diagram name="第 1 页" id="nfnzHy786rISAd0_TM_V">
    <mxGraphModel>
      <root>
        <mxCell id="0" />
        <mxCell id="1" parent="0" />
      </root>
    </mxGraphModel>
  </diagram>
</mxfile>
